<svg xmlns="http://www.w3.org/2000/svg" width="61" height="61" viewBox="0 0 61 61"><circle cx="30.5" cy="30.5" r="30.5" fill="#FFF"/><g fill="#231F20">        <path d="M19.985 18.27c-.915 2.683-1.718 5.384-2.472 8.094-.543-2.863-.921-5.756-.958-8.715-.005-.431-1.939-.11-1.932.518.052 4.243.8 8.354 1.747 12.432-1.196 4.58-2.311 9.18-3.579 13.771-.109.394 1.771.138 1.904-.344.902-3.265 1.726-6.535 2.556-9.8.805 3.204 1.644 6.407 2.273 9.657.098.508 2.041.045 1.932-.518-.864-4.462-2.12-8.836-3.146-13.247 1.068-4.086 2.202-8.157 3.578-12.191.124-.361-1.737-.145-1.903.343zM34.395 18.798c.049-1.047-1.919-.794-1.963.128-.004.08-.004.159-.008.238-.039.065-.084.128-.101.204-1.004 4.463-2.611 8.729-4.056 13.06-.644 1.93-1.139 3.898-1.666 5.856-.139-6.623-.135-13.237-.165-19.871-.005-1.042-1.965-.769-1.961.134.037 8.337.018 16.641.303 24.971a.644.644 0 0 0-.034.301l.064.445c.123.856 1.959.48 1.944-.317.005-.011.016-.018.021-.029 1.636-4.171 2.478-8.591 3.894-12.838.521-1.558 1.048-3.108 1.561-4.662-.071 5.987.058 11.969.211 17.961.026 1.012 1.58.771 1.91.065l.056-.119c.112-.239.088-.423-.015-.558-.211-8.333-.389-16.635.005-24.969zM47.32 17.66c-3.158.38-6.312.227-9.478.048-.491-.028-2.24.851-1.221.908 1.093.062 2.182.109 3.271.145-.093.081-.161.167-.157.265.295 8.408-1.054 17.239.191 25.564.063.424 2.01.005 1.932-.518-1.229-8.229.069-16.951-.185-25.27 1.776.012 3.551-.052 5.33-.266.857-.102 1.669-1.039.317-.876z"/></g></svg>
