<svg xmlns="http://www.w3.org/2000/svg" width="80" height="140" viewBox="0 0 80 140"><path fill="#E84D37" d="M40 7.101c15.622 0 28.285 12.664 28.285 28.286 0 5.112-1.362 9.902-3.734 14.041 4.503.643 7.971 4.506 7.971 9.188a9.292 9.292 0 0 1-9.293 9.293c-4.682 0-8.545-3.467-9.188-7.971-.353.201-.709.396-1.07.583-1.012 6.26-6.426 11.045-12.971 11.045-6.546 0-11.96-4.786-12.972-11.046a29.753 29.753 0 0 1-1.069-.582c-.644 4.504-4.505 7.971-9.188 7.971-5.132 0-9.292-4.161-9.292-9.293 0-4.682 3.466-8.544 7.97-9.188a28.146 28.146 0 0 1-3.735-14.041C11.714 19.765 24.378 7.101 40 7.101m0-7C20.543.101 4.714 15.93 4.714 35.387c0 3.646.568 7.263 1.668 10.713C2.763 49.116.479 53.652.479 58.615c0 8.984 7.309 16.294 16.292 16.294 3.157 0 6.141-.925 8.672-2.529 3.681 3.846 8.86 6.187 14.557 6.187s10.875-2.341 14.556-6.187a16.181 16.181 0 0 0 8.673 2.529c8.984 0 16.293-7.31 16.293-16.294 0-4.962-2.284-9.499-5.903-12.516a35.317 35.317 0 0 0 1.667-10.713C75.285 15.93 59.456.101 40 .101z"/><path fill="#E84D37" d="M63.229 78.908c-2.835 0-5.56-.598-8.04-1.681-.371.3-.761.574-1.149.851l.525.525-3.898 3.898-1.673-1.673c-.687.273-1.386.517-2.101.728l2.359 2.359-3.898 3.898-3.898-3.898 1.556-1.556c-.989.122-1.989.206-3.011.206-.988 0-1.958-.079-2.917-.194l1.543 1.544-3.898 3.898-3.898-3.898 2.339-2.34a23.605 23.605 0 0 1-2.104-.724L29.417 82.5l-3.898-3.898.49-.489c-.405-.288-.811-.575-1.197-.887a20.059 20.059 0 0 1-8.039 1.681c-.204 0-.401-.024-.603-.03a3.467 3.467 0 0 0 .16 1.622l20.375 57.125c.024.068.059.128.087.193.03.07.058.139.092.206.07.14.15.271.237.397.029.042.054.087.084.129.125.166.262.32.412.459.032.03.069.055.103.084.125.107.254.205.392.294.058.037.118.07.179.104.138.077.279.145.426.202.038.015.07.038.108.052.02.007.04.009.059.016.127.043.258.074.391.103.055.012.109.029.164.038.185.03.373.048.562.048s.377-.018.562-.048c.057-.009.113-.027.17-.04.13-.027.259-.058.384-.101.021-.007.041-.009.061-.016.04-.014.072-.037.111-.053.145-.058.285-.124.421-.2a3.34 3.34 0 0 0 .183-.106c.136-.088.265-.186.388-.291.034-.03.072-.056.105-.086.15-.14.287-.294.412-.46.03-.04.054-.084.082-.125.088-.128.169-.261.24-.401.033-.066.062-.134.09-.201.028-.066.064-.128.089-.197L63.672 80.5a3.467 3.467 0 0 0 .16-1.622c-.202.006-.399.03-.603.03zM49.252 94.541l-3.898 3.898-3.898-3.898 3.898-3.898 3.898 3.898zm-13.109 5.313l3.898-3.898 3.898 3.898-3.898 3.898-3.898-3.898zm7.796 10.625l-3.898 3.898-3.898-3.898 3.898-3.898 3.898 3.898zM40.041 85.33l3.898 3.898-3.898 3.898-3.898-3.898 3.898-3.898zm-1.414 9.211l-3.898 3.898-3.898-3.898 3.898-3.898 3.898 3.898zM23.724 80.397l.38-.38 3.898 3.898-2.229 2.229-2.049-5.747zm2.793 7.832l2.899-2.899 3.898 3.898-3.898 3.898-1.791-1.791-1.108-3.106zm2.794 7.832l.105-.105 3.898 3.898-1.954 1.954-2.049-5.747zm4.205 11.792l-1.413-3.96 2.625-2.625 3.898 3.898-3.898 3.898-1.212-1.211zm3.431 9.618l-1.863-5.223 3.543 3.543-1.68 1.68zm3.053 8.56l-2.31-6.476 2.351-2.351 2.29 2.29L40 126.031zm3.074-8.621l-1.619-1.619 3.415-3.415-1.796 5.034zm3.364-9.431l-1.085 1.085-3.898-3.898 3.898-3.898 2.564 2.564-1.479 4.147zm2.223-6.232l-1.894-1.894 3.898-3.898.046.045-2.05 5.747zm3.668-10.283l-1.663 1.663-3.898-3.898 3.898-3.898 2.838 2.838-1.175 3.295zm1.919-5.38l-2.168-2.168 3.898-3.898.319.319-2.049 5.747z"/></svg>
